<mxfile host="app.diagrams.net" agent="Mozilla/5.0 (Windows NT 10.0; Win64; x64) AppleWebKit/537.36 (KHTML, like Gecko) Chrome/130.0.0.0 Safari/537.36" version="24.8.3">
  <diagram name="Page-1" id="vkXErAUJu17M5vtXrrUG">
    <mxGraphModel dx="2261" dy="1915" grid="1" gridSize="10" guides="1" tooltips="1" connect="1" arrows="1" fold="1" page="1" pageScale="1" pageWidth="827" pageHeight="1169" math="0" shadow="0">
      <root>
        <mxCell id="0" />
        <mxCell id="1" parent="0" />
        <mxCell id="JwguTMzJzg2vz1tWly4z-8" value="Easy LMS" style="strokeWidth=1;shadow=0;dashed=0;align=center;html=1;shape=mxgraph.mockup.containers.window;align=left;verticalAlign=top;spacingLeft=8;strokeColor2=#008cff;strokeColor3=#c4c4c4;fontColor=#666666;mainText=;fontSize=17;labelBackgroundColor=none;whiteSpace=wrap;fillStyle=auto;" vertex="1" parent="1">
          <mxGeometry x="-290" y="-760" width="780" height="1820" as="geometry" />
        </mxCell>
        <mxCell id="JwguTMzJzg2vz1tWly4z-9" value="" style="html=1;shadow=0;dashed=0;fillColor=#F8F9FA;strokeColor=none;fontSize=16;fontColor=#181819;align=left;spacing=15;" vertex="1" parent="1">
          <mxGeometry x="-290" y="-730" width="780" height="70" as="geometry" />
        </mxCell>
        <mxCell id="JwguTMzJzg2vz1tWly4z-10" value="" style="swimlane;shape=mxgraph.bootstrap.anchor;strokeColor=none;fillColor=none;fontColor=#0085FC;fontStyle=0;childLayout=stackLayout;horizontal=0;startSize=0;horizontalStack=1;resizeParent=1;resizeParentMax=0;resizeLast=0;collapsible=0;marginBottom=0;whiteSpace=wrap;html=1;resizeWidth=0;" vertex="1" parent="JwguTMzJzg2vz1tWly4z-9">
          <mxGeometry y="11.666666666666668" width="80" height="46.66666666666667" as="geometry" />
        </mxCell>
        <mxCell id="JwguTMzJzg2vz1tWly4z-11" value="Logo" style="text;strokeColor=none;align=center;verticalAlign=middle;spacingLeft=10;spacingRight=10;points=[[0,0.5],[1,0.5]];portConstraint=eastwest;rotatable=0;whiteSpace=wrap;html=1;fillColor=none;fontColor=#181819;fontSize=16;" vertex="1" parent="JwguTMzJzg2vz1tWly4z-10">
          <mxGeometry width="80" height="46.66666666666667" as="geometry" />
        </mxCell>
        <mxCell id="JwguTMzJzg2vz1tWly4z-17" value="Login" style="html=1;shadow=0;dashed=0;shape=mxgraph.bootstrap.rrect;rSize=5;fontSize=14;fontColor=#33A64C;strokeColor=#33A64C;fillColor=none;" vertex="1" parent="JwguTMzJzg2vz1tWly4z-9">
          <mxGeometry x="1" width="70" height="40" relative="1" as="geometry">
            <mxPoint x="-80" y="10" as="offset" />
          </mxGeometry>
        </mxCell>
        <mxCell id="JwguTMzJzg2vz1tWly4z-12" value="Home" style="text;strokeColor=none;align=center;verticalAlign=middle;spacingLeft=10;spacingRight=10;points=[[0,0.5],[1,0.5]];portConstraint=eastwest;rotatable=0;whiteSpace=wrap;html=1;fillColor=none;fontColor=#181819;fontSize=14;" vertex="1" parent="JwguTMzJzg2vz1tWly4z-9">
          <mxGeometry x="510" y="11.666666666666629" width="50" height="46.66666666666667" as="geometry" />
        </mxCell>
        <mxCell id="JwguTMzJzg2vz1tWly4z-16" value="Contact" style="text;strokeColor=none;align=center;verticalAlign=middle;spacingLeft=10;spacingRight=10;points=[[0,0.5],[1,0.5]];portConstraint=eastwest;rotatable=0;whiteSpace=wrap;html=1;fillColor=none;fontColor=#ADAEAF;fontSize=14;" vertex="1" parent="JwguTMzJzg2vz1tWly4z-9">
          <mxGeometry x="614" y="11.666666666666629" width="80" height="46.66666666666667" as="geometry" />
        </mxCell>
        <mxCell id="JwguTMzJzg2vz1tWly4z-19" value="About" style="text;strokeColor=none;align=center;verticalAlign=middle;spacingLeft=10;spacingRight=10;points=[[0,0.5],[1,0.5]];portConstraint=eastwest;rotatable=0;whiteSpace=wrap;html=1;fillColor=none;fontColor=#7C7C7D;fontSize=14;" vertex="1" parent="JwguTMzJzg2vz1tWly4z-9">
          <mxGeometry x="560" y="11.666666666666629" width="70" height="46.66666666666667" as="geometry" />
        </mxCell>
        <mxCell id="JwguTMzJzg2vz1tWly4z-20" value="&lt;font style=&quot;font-size: 24px;&quot;&gt;Create Your Own Online Learning Community&lt;/font&gt;" style="text;html=1;align=left;verticalAlign=middle;whiteSpace=wrap;rounded=0;" vertex="1" parent="1">
          <mxGeometry x="-240" y="-640" width="330" height="60" as="geometry" />
        </mxCell>
        <mxCell id="JwguTMzJzg2vz1tWly4z-21" value="We have everything you need and nothing you don&#39;t." style="text;html=1;align=left;verticalAlign=middle;whiteSpace=wrap;rounded=0;" vertex="1" parent="1">
          <mxGeometry x="-240" y="-580" width="310" height="30" as="geometry" />
        </mxCell>
        <mxCell id="JwguTMzJzg2vz1tWly4z-22" value="&lt;font color=&quot;#000000&quot;&gt;Sign Up&lt;/font&gt;" style="html=1;shadow=0;dashed=0;shape=mxgraph.bootstrap.rrect;rSize=5;strokeColor=none;strokeWidth=1;fillColor=#0085FC;fontColor=#FFFFFF;whiteSpace=wrap;align=center;verticalAlign=middle;spacingLeft=0;fontStyle=1;fontSize=14;spacing=5;" vertex="1" parent="1">
          <mxGeometry x="-240" y="-540" width="70" height="30" as="geometry" />
        </mxCell>
        <mxCell id="JwguTMzJzg2vz1tWly4z-24" value="&lt;font color=&quot;#000000&quot;&gt;Book a Call&lt;/font&gt;" style="html=1;shadow=0;dashed=0;shape=mxgraph.bootstrap.rrect;rSize=5;strokeColor=none;strokeWidth=1;fillColor=#CCCCCC;fontColor=#FFFFFF;whiteSpace=wrap;align=center;verticalAlign=middle;spacingLeft=0;fontStyle=1;fontSize=14;spacing=5;" vertex="1" parent="1">
          <mxGeometry x="-160" y="-540" width="110" height="30" as="geometry" />
        </mxCell>
        <mxCell id="JwguTMzJzg2vz1tWly4z-27" value="" style="sketch=0;outlineConnect=0;fontColor=#232F3E;gradientColor=none;fillColor=#ED7100;strokeColor=none;dashed=0;verticalLabelPosition=bottom;verticalAlign=top;align=center;html=1;fontSize=12;fontStyle=0;aspect=fixed;pointerEvents=1;shape=mxgraph.aws4.container_registry_image;" vertex="1" parent="1">
          <mxGeometry x="-160" y="-480" width="120" height="120" as="geometry" />
        </mxCell>
        <mxCell id="JwguTMzJzg2vz1tWly4z-28" value="" style="sketch=0;outlineConnect=0;fontColor=#232F3E;gradientColor=none;fillColor=#ED7100;strokeColor=none;dashed=0;verticalLabelPosition=bottom;verticalAlign=top;align=center;html=1;fontSize=12;fontStyle=0;aspect=fixed;pointerEvents=1;shape=mxgraph.aws4.container_registry_image;" vertex="1" parent="1">
          <mxGeometry x="90" y="-570" width="210" height="210" as="geometry" />
        </mxCell>
        <mxCell id="JwguTMzJzg2vz1tWly4z-29" value="" style="rounded=0;whiteSpace=wrap;html=1;fillColor=#666666;" vertex="1" parent="1">
          <mxGeometry x="-290" y="-310" width="780" height="650" as="geometry" />
        </mxCell>
        <mxCell id="JwguTMzJzg2vz1tWly4z-30" value="&lt;font style=&quot;font-size: 24px;&quot;&gt;Create Your Own Online Learning Community&lt;/font&gt;" style="text;html=1;align=center;verticalAlign=middle;whiteSpace=wrap;rounded=0;fontColor=#FFFFFF;" vertex="1" parent="1">
          <mxGeometry x="-57.5" y="-300" width="315" height="70" as="geometry" />
        </mxCell>
        <mxCell id="JwguTMzJzg2vz1tWly4z-31" value="Video" style="html=1;whiteSpace=wrap;strokeColor=none;fillColor=#0079D6;labelPosition=center;verticalLabelPosition=middle;verticalAlign=top;align=center;fontSize=12;outlineConnect=0;spacingTop=-6;fontColor=#FFFFFF;sketch=0;shape=mxgraph.sitemap.video;" vertex="1" parent="1">
          <mxGeometry x="-90" y="-220" width="360" height="230" as="geometry" />
        </mxCell>
        <mxCell id="JwguTMzJzg2vz1tWly4z-33" value="&lt;font color=&quot;#000000&quot;&gt;Sign Up&lt;/font&gt;" style="html=1;shadow=0;dashed=0;shape=mxgraph.bootstrap.rrect;rSize=5;strokeColor=none;strokeWidth=1;fillColor=#0085FC;fontColor=#FFFFFF;whiteSpace=wrap;align=center;verticalAlign=middle;spacingLeft=0;fontStyle=1;fontSize=14;spacing=5;" vertex="1" parent="1">
          <mxGeometry x="-90" y="20" width="70" height="30" as="geometry" />
        </mxCell>
        <mxCell id="JwguTMzJzg2vz1tWly4z-34" value="&lt;font color=&quot;#000000&quot;&gt;Book a Call&lt;/font&gt;" style="html=1;shadow=0;dashed=0;shape=mxgraph.bootstrap.rrect;rSize=5;strokeColor=none;strokeWidth=1;fillColor=#CCCCCC;fontColor=#FFFFFF;whiteSpace=wrap;align=center;verticalAlign=middle;spacingLeft=0;fontStyle=1;fontSize=14;spacing=5;" vertex="1" parent="1">
          <mxGeometry x="-10" y="20" width="110" height="30" as="geometry" />
        </mxCell>
        <mxCell id="JwguTMzJzg2vz1tWly4z-35" value="&lt;font style=&quot;font-size: 18px;&quot; color=&quot;#ffffff&quot;&gt;Testimonials&lt;/font&gt;" style="text;html=1;align=center;verticalAlign=middle;whiteSpace=wrap;rounded=0;" vertex="1" parent="1">
          <mxGeometry x="-10" y="70" width="220" height="50" as="geometry" />
        </mxCell>
        <mxCell id="JwguTMzJzg2vz1tWly4z-36" value="" style="rounded=1;whiteSpace=wrap;html=1;" vertex="1" parent="1">
          <mxGeometry x="-160" y="150" width="130" height="70" as="geometry" />
        </mxCell>
        <mxCell id="JwguTMzJzg2vz1tWly4z-40" value="Testimonial text&amp;nbsp;&lt;div&gt;&lt;b&gt;Source&lt;/b&gt;&lt;/div&gt;" style="text;html=1;align=left;verticalAlign=middle;whiteSpace=wrap;rounded=0;" vertex="1" parent="1">
          <mxGeometry x="-150" y="155" width="110" height="50" as="geometry" />
        </mxCell>
        <mxCell id="JwguTMzJzg2vz1tWly4z-43" value="" style="rounded=1;whiteSpace=wrap;html=1;" vertex="1" parent="1">
          <mxGeometry x="35" y="150" width="130" height="70" as="geometry" />
        </mxCell>
        <mxCell id="JwguTMzJzg2vz1tWly4z-44" value="Testimonial text&amp;nbsp;&lt;div&gt;&lt;b&gt;Source&lt;/b&gt;&lt;/div&gt;" style="text;html=1;align=left;verticalAlign=middle;whiteSpace=wrap;rounded=0;" vertex="1" parent="1">
          <mxGeometry x="45" y="155" width="110" height="50" as="geometry" />
        </mxCell>
        <mxCell id="JwguTMzJzg2vz1tWly4z-45" value="" style="rounded=1;whiteSpace=wrap;html=1;" vertex="1" parent="1">
          <mxGeometry x="240" y="150" width="130" height="70" as="geometry" />
        </mxCell>
        <mxCell id="JwguTMzJzg2vz1tWly4z-46" value="Testimonial text&amp;nbsp;&lt;div&gt;&lt;b&gt;Source&lt;/b&gt;&lt;/div&gt;" style="text;html=1;align=left;verticalAlign=middle;whiteSpace=wrap;rounded=0;" vertex="1" parent="1">
          <mxGeometry x="250" y="155" width="110" height="50" as="geometry" />
        </mxCell>
        <mxCell id="JwguTMzJzg2vz1tWly4z-47" value="&lt;font style=&quot;font-size: 24px;&quot;&gt;Pricing&lt;/font&gt;" style="text;html=1;align=center;verticalAlign=middle;whiteSpace=wrap;rounded=0;fontColor=#000000;" vertex="1" parent="1">
          <mxGeometry x="-65" y="360" width="295" height="40" as="geometry" />
        </mxCell>
        <mxCell id="JwguTMzJzg2vz1tWly4z-48" value="One monthly price. No hidden fees." style="text;html=1;align=center;verticalAlign=middle;whiteSpace=wrap;rounded=0;" vertex="1" parent="1">
          <mxGeometry x="-60" y="400" width="285" height="30" as="geometry" />
        </mxCell>
        <mxCell id="JwguTMzJzg2vz1tWly4z-49" value="" style="rounded=1;whiteSpace=wrap;html=1;arcSize=6;" vertex="1" parent="1">
          <mxGeometry x="-185" y="460" width="230" height="360" as="geometry" />
        </mxCell>
        <mxCell id="JwguTMzJzg2vz1tWly4z-50" value="" style="rounded=1;whiteSpace=wrap;html=1;arcSize=6;" vertex="1" parent="1">
          <mxGeometry x="120" y="460" width="230" height="360" as="geometry" />
        </mxCell>
        <mxCell id="JwguTMzJzg2vz1tWly4z-51" value="&lt;font style=&quot;font-size: 24px;&quot;&gt;Free Trial&lt;/font&gt;" style="text;html=1;align=left;verticalAlign=middle;whiteSpace=wrap;rounded=0;fontColor=#000000;" vertex="1" parent="1">
          <mxGeometry x="-160" y="470" width="135" height="40" as="geometry" />
        </mxCell>
        <mxCell id="JwguTMzJzg2vz1tWly4z-52" value="Try our all features for free and start building your community for free. No credit card needed." style="text;html=1;align=left;verticalAlign=top;whiteSpace=wrap;rounded=0;" vertex="1" parent="1">
          <mxGeometry x="-160" y="510" width="200" height="70" as="geometry" />
        </mxCell>
        <mxCell id="JwguTMzJzg2vz1tWly4z-53" value="&lt;font style=&quot;font-size: 24px;&quot;&gt;$0&lt;/font&gt;" style="text;html=1;align=left;verticalAlign=middle;whiteSpace=wrap;rounded=0;fontColor=#000000;" vertex="1" parent="1">
          <mxGeometry x="-160" y="600" width="80" height="45" as="geometry" />
        </mxCell>
        <mxCell id="JwguTMzJzg2vz1tWly4z-55" value="" style="line;strokeWidth=2;html=1;fontSize=11;" vertex="1" parent="1">
          <mxGeometry x="-150" y="645" width="185" height="10" as="geometry" />
        </mxCell>
        <mxCell id="JwguTMzJzg2vz1tWly4z-56" value="" style="line;strokeWidth=2;html=1;fontSize=11;" vertex="1" parent="1">
          <mxGeometry x="160" y="645" width="185" height="10" as="geometry" />
        </mxCell>
        <mxCell id="JwguTMzJzg2vz1tWly4z-57" value="&lt;font style=&quot;font-size: 24px;&quot;&gt;Pro&lt;/font&gt;" style="text;html=1;align=left;verticalAlign=middle;whiteSpace=wrap;rounded=0;fontColor=#000000;" vertex="1" parent="1">
          <mxGeometry x="150" y="470" width="135" height="40" as="geometry" />
        </mxCell>
        <mxCell id="JwguTMzJzg2vz1tWly4z-58" value="One price, monthly plan." style="text;html=1;align=left;verticalAlign=top;whiteSpace=wrap;rounded=0;" vertex="1" parent="1">
          <mxGeometry x="150" y="510" width="200" height="70" as="geometry" />
        </mxCell>
        <mxCell id="JwguTMzJzg2vz1tWly4z-59" value="&lt;font style=&quot;font-size: 24px;&quot;&gt;$99&lt;/font&gt;" style="text;html=1;align=left;verticalAlign=middle;whiteSpace=wrap;rounded=0;fontColor=#000000;" vertex="1" parent="1">
          <mxGeometry x="150" y="600" width="80" height="45" as="geometry" />
        </mxCell>
        <mxCell id="JwguTMzJzg2vz1tWly4z-60" value="" style="shape=image;html=1;verticalAlign=top;verticalLabelPosition=bottom;labelBackgroundColor=#ffffff;imageAspect=0;aspect=fixed;image=https://cdn4.iconfinder.com/data/icons/ionicons/512/icon-checkmark-128.png" vertex="1" parent="1">
          <mxGeometry x="-155" y="680" width="18" height="18" as="geometry" />
        </mxCell>
        <mxCell id="JwguTMzJzg2vz1tWly4z-66" value="Feature" style="text;html=1;align=center;verticalAlign=middle;whiteSpace=wrap;rounded=0;" vertex="1" parent="1">
          <mxGeometry x="-135" y="674" width="60" height="30" as="geometry" />
        </mxCell>
        <mxCell id="JwguTMzJzg2vz1tWly4z-67" value="" style="shape=image;html=1;verticalAlign=top;verticalLabelPosition=bottom;labelBackgroundColor=#ffffff;imageAspect=0;aspect=fixed;image=https://cdn4.iconfinder.com/data/icons/ionicons/512/icon-checkmark-128.png" vertex="1" parent="1">
          <mxGeometry x="-155" y="710" width="18" height="18" as="geometry" />
        </mxCell>
        <mxCell id="JwguTMzJzg2vz1tWly4z-68" value="Feature" style="text;html=1;align=center;verticalAlign=middle;whiteSpace=wrap;rounded=0;" vertex="1" parent="1">
          <mxGeometry x="-135" y="704" width="60" height="30" as="geometry" />
        </mxCell>
        <mxCell id="JwguTMzJzg2vz1tWly4z-69" value="" style="shape=image;html=1;verticalAlign=top;verticalLabelPosition=bottom;labelBackgroundColor=#ffffff;imageAspect=0;aspect=fixed;image=https://cdn4.iconfinder.com/data/icons/ionicons/512/icon-checkmark-128.png" vertex="1" parent="1">
          <mxGeometry x="-155" y="740" width="18" height="18" as="geometry" />
        </mxCell>
        <mxCell id="JwguTMzJzg2vz1tWly4z-70" value="Feature" style="text;html=1;align=center;verticalAlign=middle;whiteSpace=wrap;rounded=0;" vertex="1" parent="1">
          <mxGeometry x="-135" y="734" width="60" height="30" as="geometry" />
        </mxCell>
        <mxCell id="JwguTMzJzg2vz1tWly4z-71" value="" style="shape=image;html=1;verticalAlign=top;verticalLabelPosition=bottom;labelBackgroundColor=#ffffff;imageAspect=0;aspect=fixed;image=https://cdn4.iconfinder.com/data/icons/ionicons/512/icon-checkmark-128.png" vertex="1" parent="1">
          <mxGeometry x="150" y="674" width="18" height="18" as="geometry" />
        </mxCell>
        <mxCell id="JwguTMzJzg2vz1tWly4z-72" value="" style="shape=image;html=1;verticalAlign=top;verticalLabelPosition=bottom;labelBackgroundColor=#ffffff;imageAspect=0;aspect=fixed;image=https://cdn4.iconfinder.com/data/icons/ionicons/512/icon-checkmark-128.png" vertex="1" parent="1">
          <mxGeometry x="150" y="704" width="18" height="18" as="geometry" />
        </mxCell>
        <mxCell id="JwguTMzJzg2vz1tWly4z-73" value="" style="shape=image;html=1;verticalAlign=top;verticalLabelPosition=bottom;labelBackgroundColor=#ffffff;imageAspect=0;aspect=fixed;image=https://cdn4.iconfinder.com/data/icons/ionicons/512/icon-checkmark-128.png" vertex="1" parent="1">
          <mxGeometry x="150" y="734" width="18" height="18" as="geometry" />
        </mxCell>
        <mxCell id="JwguTMzJzg2vz1tWly4z-74" value="Feature" style="text;html=1;align=center;verticalAlign=middle;whiteSpace=wrap;rounded=0;" vertex="1" parent="1">
          <mxGeometry x="170" y="728" width="60" height="30" as="geometry" />
        </mxCell>
        <mxCell id="JwguTMzJzg2vz1tWly4z-75" value="Feature" style="text;html=1;align=center;verticalAlign=middle;whiteSpace=wrap;rounded=0;" vertex="1" parent="1">
          <mxGeometry x="170" y="668" width="60" height="30" as="geometry" />
        </mxCell>
        <mxCell id="JwguTMzJzg2vz1tWly4z-76" value="Feature" style="text;html=1;align=center;verticalAlign=middle;whiteSpace=wrap;rounded=0;" vertex="1" parent="1">
          <mxGeometry x="170" y="698" width="60" height="30" as="geometry" />
        </mxCell>
        <mxCell id="JwguTMzJzg2vz1tWly4z-77" value="&lt;font color=&quot;#000000&quot;&gt;Sign Up&lt;/font&gt;" style="html=1;shadow=0;dashed=0;shape=mxgraph.bootstrap.rrect;rSize=5;strokeColor=none;strokeWidth=1;fillColor=#0085FC;fontColor=#FFFFFF;whiteSpace=wrap;align=center;verticalAlign=middle;spacingLeft=0;fontStyle=1;fontSize=14;spacing=5;" vertex="1" parent="1">
          <mxGeometry x="-160" y="770" width="170" height="30" as="geometry" />
        </mxCell>
        <mxCell id="JwguTMzJzg2vz1tWly4z-78" value="&lt;font color=&quot;#000000&quot;&gt;Sign Up&lt;/font&gt;" style="html=1;shadow=0;dashed=0;shape=mxgraph.bootstrap.rrect;rSize=5;strokeColor=none;strokeWidth=1;fillColor=#0085FC;fontColor=#FFFFFF;whiteSpace=wrap;align=center;verticalAlign=middle;spacingLeft=0;fontStyle=1;fontSize=14;spacing=5;" vertex="1" parent="1">
          <mxGeometry x="150" y="770" width="170" height="30" as="geometry" />
        </mxCell>
        <mxCell id="JwguTMzJzg2vz1tWly4z-79" value="" style="rounded=0;whiteSpace=wrap;html=1;fillColor=#666666;" vertex="1" parent="1">
          <mxGeometry x="-290" y="870" width="780" height="190" as="geometry" />
        </mxCell>
        <mxCell id="JwguTMzJzg2vz1tWly4z-80" value="" style="shape=image;html=1;verticalLabelPosition=bottom;verticalAlign=top;imageAspect=1;aspect=fixed;image=img/clipart/Gear_128x128.png" vertex="1" parent="1">
          <mxGeometry x="-237" y="930" width="52" height="61" as="geometry" />
        </mxCell>
        <mxCell id="JwguTMzJzg2vz1tWly4z-81" value="Line 1&lt;br&gt;Line 2&lt;br&gt;Line 3&lt;br&gt;Line 4" style="strokeWidth=1;shadow=0;dashed=0;align=center;html=1;shape=mxgraph.mockup.text.bulletedList;textColor=#666666;mainText=,,,,;textSize=17;bulletStyle=none;strokeColor=none;fillColor=none;align=left;verticalAlign=top;fontSize=17;fontColor=#FFFFFF;" vertex="1" parent="1">
          <mxGeometry x="62.5" y="910.5" width="75" height="100" as="geometry" />
        </mxCell>
        <mxCell id="JwguTMzJzg2vz1tWly4z-82" value="Line 1&lt;br&gt;Line 2&lt;br&gt;Line 3&lt;br&gt;Line 4" style="strokeWidth=1;shadow=0;dashed=0;align=center;html=1;shape=mxgraph.mockup.text.bulletedList;textColor=#666666;mainText=,,,,;textSize=17;bulletStyle=none;strokeColor=none;fillColor=none;align=left;verticalAlign=top;fontSize=17;fontColor=#FFFFFF;" vertex="1" parent="1">
          <mxGeometry x="339" y="915" width="75" height="100" as="geometry" />
        </mxCell>
      </root>
    </mxGraphModel>
  </diagram>
</mxfile>
